# xmcd CD database file
#
# Track frame offsets:
#	183
#	14185
#	34963
#	52560
#	71368
#	85265
#	108538
#	124533
#	145905
#	160650
#	186345
#	205253
#	226738
#	242230
#
# Disc length: 3500 seconds
#
# Revision: 0
# Processed by: cddbd v1.4b41PL2 Copyright (c) Steve Scherf et al.
# Submitted via: Feurio! 1.61.1ß - http://www.feurio.com
#
DISCID=ba0daa0e
DTITLE=Jean-Paul Amouroux and Jean-Pierre Bertrand - Boogie Woogie for two 
DTITLE=pianists
DYEAR=1900
DGENRE=
TTITLE0=Cafe Society Boogie
TTITLE1=The Sheik Of Araby
TTITLE2=Sheridan Square Boogie
TTITLE3=Oh Lady Be Good
TTITLE4=Sherman Hotel Shuffle
TTITLE5=Randolph Street Boogie
TTITLE6=Panther Room Boogie
TTITLE7=Pinetop's Blues
TTITLE8=Carnegie Hall Boogie
TTITLE9=7th Avenue Boogie
TTITLE10=Yancey Special
TTITLE11=Latitudes Boogie Woogie
TTITLE12=St. Benoit Street Boogie
TTITLE13=Honky Tonk Train Blues
EXTD=Live at Latitudes Jazz Club, Paris
EXTT0=
EXTT1=
EXTT2=
EXTT3=
EXTT4=
EXTT5=
EXTT6=
EXTT7=
EXTT8=
EXTT9=
EXTT10=
EXTT11=
EXTT12=
EXTT13=
PLAYORDER=
